<svg width="1200" height="600" version="1.1" viewBox="0 0 60 30" xmlns="http://www.w3.org/2000/svg" xmlns:xlink="http://www.w3.org/1999/xlink"><defs><radialGradient id="radialGradient2144" cx="30" cy="14.99" r="30.03" gradientTransform="matrix(1 0 0 .5004 0 7.49)" gradientUnits="userSpaceOnUse"><stop style="stop-color:#fff" offset="0"/><stop style="stop-color:#fff;stop-opacity:.09046" offset="1"/></radialGradient></defs><clipPath id="s"><path d="m0 0v30h60v-30z"/></clipPath><clipPath id="t"><path d="m30 15h30v15zv15h-30zh-30v-15zv-15h30z"/></clipPath><g style="fill:url(#radialGradient2144)"><path d="m-0.03139 20.02h13.28l-13.25 6.629v3.356l19.97-10.02h4.548l-20.11 10.03h2.323l18.26-9.136v9.095h2.002v-11.98h-27.01z" style="fill:url(#radialGradient2144);stop-color:#000000"/><path d="m60.03 9.962h-13.28l13.25-6.629v-3.356l-19.97 10.02h-4.548l20.11-10.03h-2.323l-18.26 9.136v-9.095h-2.002v11.98h27.01z" style="fill:url(#radialGradient2144);stop-color:#000000"/><path d="m33.01 30.01v-11.98h26.98v2.042h-13.15l13.15 6.534v1.182l-15.44-7.75h-4.415l19.87 9.964h-6.719l-18.29-9.101v9.111z" style="fill:url(#radialGradient2144);stop-color:#000000"/><path d="m26.99-0.00965v11.98h-26.98v-2.042h13.15l-13.15-6.534v-1.182l15.44 7.75h4.415l-19.87-9.964h6.719l18.29 9.101v-9.111z" style="fill:url(#radialGradient2144);stop-color:#000000"/></g></svg>
